<?xml version="1.0" encoding="utf-8"?>
<!-- Generator: Adobe Illustrator 19.2.1, SVG Export Plug-In . SVG Version: 6.00 Build 0)  -->
<svg version="1.1" id="Layer_1" xmlns="http://www.w3.org/2000/svg" xmlns:xlink="http://www.w3.org/1999/xlink" x="0px" y="0px"
	 viewBox="0 0 21 24" style="enable-background:new 0 0 21 24;" xml:space="preserve">
<style type="text/css">
	.st0{fill:#041C2C;}
</style>
<title>share</title>
<g fill="currentColor">
	<path class="st0" d="M3.3,15.1c-1.7,0-3.1-1.4-3.1-3.1s1.4-3.1,3.1-3.1s3.1,1.4,3.1,3.1l0,0C6.4,13.7,5,15.1,3.3,15.1z M3.3,9.7
		C2,9.7,1,10.7,1,12s1,2.3,2.3,2.3s2.3-1,2.3-2.3S4.6,9.7,3.3,9.7L3.3,9.7z"/>
	<path class="st0" d="M17.7,6.5c-1.7,0-3.1-1.4-3.1-3.1s1.4-3.1,3.1-3.1c1.7,0,3.1,1.4,3.1,3.1v0C20.8,5.1,19.4,6.5,17.7,6.5z
		M17.7,1.1c-1.3,0-2.3,1-2.3,2.3s1,2.3,2.3,2.3c1.3,0,2.3-1,2.3-2.3S19,1.1,17.7,1.1C17.7,1.1,17.7,1.1,17.7,1.1z"/>
	<path class="st0" d="M17.7,23.6c-1.7,0-3.1-1.4-3.1-3.1s1.4-3.1,3.1-3.1c1.7,0,3.1,1.4,3.1,3.1l0,0C20.8,22.3,19.4,23.6,17.7,23.6z
		M17.7,18.2c-1.3,0-2.3,1-2.3,2.3c0,1.3,1,2.3,2.3,2.3c1.3,0,2.3-1,2.3-2.3l0,0C20,19.3,19,18.2,17.7,18.2z"/>
	<path class="st0" d="M6.2,11.4c-0.1,0-0.2-0.1-0.3-0.2c-0.1-0.2-0.1-0.4,0.1-0.5l9.2-6.3c0.2-0.1,0.4-0.1,0.5,0.1c0,0,0,0,0,0
		c0.1,0.2,0.1,0.4-0.1,0.5l-9.2,6.3C6.3,11.4,6.3,11.5,6.2,11.4z"/>
	<path class="st0" d="M15.4,19.6c-0.1,0-0.2,0-0.2-0.1L6,13.2c-0.2-0.1-0.2-0.4-0.1-0.5c0.1-0.2,0.4-0.2,0.5-0.1l9.2,6.3
		c0.2,0.1,0.2,0.4,0.1,0.5C15.6,19.5,15.5,19.6,15.4,19.6z"/>
</g>
</svg>
