<svg id="Layer_1" data-name="Layer 1" xmlns="http://www.w3.org/2000/svg" viewBox="0 0 30 30"><defs><style>.cls-1{fill:#fff;}</style></defs><title>expand</title><path fill="currentColor" class="cls-1" d="M13.71,17.57,11.25,20c-.27.26-.18.48.2.48H13.7a.91.91,0,1,1,0,1.81l-5.19,0a.8.8,0,0,1-.8-.8l0-5.21a.91.91,0,1,1,1.81,0v2.25c0,.38.22.47.48.2l6.32-6.31h0L18.75,10c.27-.26.18-.48-.2-.48H16.3a.91.91,0,1,1,0-1.81l5.19,0a.8.8,0,0,1,.8.8l0,5.21a.91.91,0,1,1-1.81,0V11.45c0-.38-.22-.47-.48-.2l-6.32,6.31Z"/></svg>