<?xml version="1.0" encoding="utf-8"?>
<!-- Generator: Adobe Illustrator 22.1.0, SVG Export Plug-In . SVG Version: 6.00 Build 0)  -->
<svg version="1.1" id="Layer_1" xmlns="http://www.w3.org/2000/svg" xmlns:xlink="http://www.w3.org/1999/xlink" x="0px" y="0px"
	 viewBox="0 0 14 26" style="enable-background:new 0 0 14 26;" xml:space="preserve">
<g fill="currentColor">
	<g>
		<g>
			<path class="st0" d="M13.3,0.4l-3.3,0c-3.7,0-6,2.4-6,6.2v2.9H0.7c-0.3,0-0.5,0.2-0.5,0.5v4.1c0,0.3,0.2,0.5,0.5,0.5H4V25
				c0,0.3,0.2,0.5,0.5,0.5h4.3c0.3,0,0.5-0.2,0.5-0.5V14.6h3.8c0.3,0,0.5-0.2,0.5-0.5l0-4.1c0-0.1-0.1-0.3-0.2-0.4
				c-0.1-0.1-0.2-0.1-0.4-0.1H9.3V7.1c0-1.2,0.3-1.8,1.8-1.8l2.2,0c0.3,0,0.5-0.2,0.5-0.5V1C13.8,0.7,13.6,0.4,13.3,0.4L13.3,0.4z
				 M13.3,0.4"/>
		</g>
	</g>
</g>
</svg>
