<?xml version="1.0" encoding="utf-8"?>
<!-- Generator: Adobe Illustrator 19.2.1, SVG Export Plug-In . SVG Version: 6.00 Build 0)  -->
<svg version="1.1" id="Layer_1" xmlns="http://www.w3.org/2000/svg" xmlns:xlink="http://www.w3.org/1999/xlink" x="0px" y="0px"
	 viewBox="0 0 25 26" style="enable-background:new 0 0 25 26;" xml:space="preserve">
<style type="text/css">
	.st0{fill:#041C2C;}
</style>
<title>print</title>
<g fill="currentColor">
	<path class="st0" d="M22.2,20.2h-2.5v-4.8H5.3v4.8H2.8c-1.4-0.1-2.6-1.3-2.5-2.7V7.4C0.2,5.9,1.4,4.7,2.8,4.7h2.5V7h14.4V4.7h2.5
		c1.4,0.1,2.6,1.3,2.5,2.7v10.2C24.8,19,23.6,20.2,22.2,20.2z M20.5,19.5h1.7c1-0.1,1.8-0.9,1.8-2c0,0,0,0,0,0V7.4
		c0.1-1-0.7-1.9-1.7-2c0,0,0,0,0,0h-1.7v2.4h-16V5.4H2.8C1.8,5.5,1,6.4,1,7.4c0,0,0,0,0,0v10.1c-0.1,1,0.7,1.9,1.7,2c0,0,0,0,0,0h1.7
		v-4.9h16V19.5z"/>
	<path class="st0" d="M18.7,25.6H6.3v-9.1h12.5V25.6z M7,24.9h11v-7.6H7V24.9z"/>
	<path class="st0" d="M18.7,6.1H6.3V0.4h12.5V6.1z M7,5.3h11V1.1H7V5.3z"/>
	<path class="st0" d="M22,8.1c0.6-0.1,1.1-0.6,1-1.2c-0.1-0.5-0.5-1-1-1c-0.6,0.1-1.1,0.6-1,1.2C21.1,7.6,21.5,8.1,22,8.1z"/>
</g>
</svg>
