<?xml version="1.0" encoding="utf-8"?>
<!-- Generator: Adobe Illustrator 19.2.1, SVG Export Plug-In . SVG Version: 6.00 Build 0)  -->
<svg version="1.1" id="Layer_1" xmlns="http://www.w3.org/2000/svg" xmlns:xlink="http://www.w3.org/1999/xlink" x="0px" y="0px"
	 viewBox="0 0 23 18" style="enable-background:new 0 0 23 18;" xml:space="preserve">
<style type="text/css">
	.st0{fill:#041C2C;}
</style>
<g fill="currentColor">
	<path class="st0" d="M19,3.6V0.7V0.4H0.4v17.1h2.2V2.6h14.2v1h-3.3v10h3.3v4H19v-4h3.6v-10L19,3.6z M18.5,17h-1.2v-3.5h1.2V17z
		 M22.1,13H14V8.8h8.1V13z M2.1,2V17H0.9V0.9h17.7v2.7h-1.2V2.1L2.1,2z M14,4h8.1v4.2H14L14,4z"/>
	<path class="st0" d="M17.1,6h1.8v0.5h-1.8V6z"/>
	<path class="st0" d="M17.1,10.8h1.8v0.5h-1.8V10.8z"/>
</g>
</svg>
