<?xml version="1.0" encoding="utf-8"?>
<!-- Generator: Adobe Illustrator 19.2.1, SVG Export Plug-In . SVG Version: 6.00 Build 0)  -->
<svg version="1.1" id="Layer_1" xmlns="http://www.w3.org/2000/svg" xmlns:xlink="http://www.w3.org/1999/xlink" x="0px" y="0px"
	 viewBox="0 0 19 24" style="enable-background:new 0 0 19 24;" xml:space="preserve">
<style type="text/css">
	.st0{fill:#FD241C;}
</style>
<path fill="currentColor" d="M10.1,0.2c-6.5,0-9.7,4.6-9.7,8.5c0,2.3,0.9,4.4,2.8,5.2c0.3,0.1,0.6,0,0.7-0.3c0.1-0.2,0.2-0.8,0.3-1.1
	c0.1-0.3,0.1-0.5-0.2-0.8C3.3,11,3,10.2,3,9c0-3.4,2.6-6.5,6.7-6.5c3.6,0,5.6,2.2,5.6,5.2c0,3.9-1.7,7.2-4.3,7.2
	c-1.4,0-2.5-1.2-2.1-2.6c0.4-1.7,1.2-3.6,1.2-4.8c0-1.1-0.6-2-1.8-2C6.8,5.4,5.6,7,5.6,9c0,1.3,0.4,2.1,0.4,2.1s-1.5,6.3-1.7,7.4
	c-0.5,2.2-0.1,4.9,0,5.2c0,0.2,0.2,0.2,0.3,0.1c0.1-0.2,1.9-2.3,2.5-4.4c0.2-0.6,1-3.7,1-3.7c0.5,0.9,1.9,1.7,3.3,1.7
	c4.4,0,7.3-4,7.3-9.3C18.6,3.9,15.2,0.2,10.1,0.2z"/>
</svg>
