<?xml version="1.0" encoding="utf-8"?>
<!-- Generator: Adobe Illustrator 23.0.1, SVG Export Plug-In . SVG Version: 6.00 Build 0)  -->
<svg version="1.1" id="travel" xmlns="http://www.w3.org/2000/svg" xmlns:xlink="http://www.w3.org/1999/xlink" x="0px" y="0px"
	 viewBox="0 0 48 48" style="enable-background:new 0 0 48 48;" xml:space="preserve">
<style type="text/css">
	.st0{fill:none;stroke:#001628;stroke-width:0.5;}
</style>
<title>icon-travel-time</title>
<path class="st0" d="M24.4,12.2v1.9 M24.4,44.7v1.8 M15.8,14.6l0.9,1.6 M32.1,42.7l0.9,1.6 M9.5,20.8l1.6,0.9 M37.7,37.1l1.6,0.9
	 M7.3,29.4h1.8 M39.7,29.4h1.8 M9.5,38l1.6-0.9 M37.7,21.7l1.6-0.9 M15.8,44.3l0.9-1.6 M32.1,16.1l0.9-1.6"/>
<path class="st0" d="M42.5,29.4c0,10-8.1,18.1-18.1,18.1S6.2,39.4,6.2,29.4s8.2-18.2,18.2-18.2C34.4,11.3,42.5,19.4,42.5,29.4z
	 M24.4,29.4l-7.5-4.8 M35.1,23.3l-10.7,6.1"/>
</svg>
