<?xml version="1.0" encoding="utf-8"?>
<!-- Generator: Adobe Illustrator 22.1.0, SVG Export Plug-In . SVG Version: 6.00 Build 0)  -->
<svg version="1.1" id="Layer_1" xmlns="http://www.w3.org/2000/svg" xmlns:xlink="http://www.w3.org/1999/xlink" x="0px" y="0px"
	 viewBox="0 0 22 16" style="enable-background:new 0 0 22 16;" xml:space="preserve">
<g fill="currentColor">
	<g>
		<defs>
			<rect id="SVGID_1_" x="0.9" y="0.5" width="20.3" height="15"/>
		</defs>
		<clipPath id="SVGID_2_">
			<use xlink:href="#SVGID_1_"  style="overflow:visible;"/>
		</clipPath>
		<path class="st0" d="M21,0.7c-0.1-0.1-0.1-0.1-0.2-0.1H14c-0.1,0-0.2,0-0.2,0.1l-4,4L5.7,0.6c-0.1-0.1-0.3-0.1-0.4,0L3.8,2
			c-0.1,0.1-0.1,0.3,0,0.4L5,3.6L1.4,7.1c-0.1,0.1-0.1,0.3,0,0.4c0.1,0.1,0.1,0.1,0.2,0.1c0.1,0,0.2,0,0.2-0.1L5.4,4l1.4,1.4L3.3,9
			c-0.1,0.1-0.1,0.3,0,0.4c0.1,0.1,0.1,0.1,0.2,0.1s0.2,0,0.2-0.1l3.5-3.5l1.4,1.4l-3.5,3.5C5,11,5,11.1,5.1,11.3
			c0.1,0.1,0.1,0.1,0.2,0.1c0.1,0,0.2,0,0.2-0.1l3.5-3.5l1.4,1.4L7,12.7c-0.1,0.1-0.1,0.3,0,0.4c0.1,0.1,0.1,0.1,0.2,0.1
			c0.1,0,0.2,0,0.2-0.1l3.5-3.5l1.4,1.4l-3.5,3.5c-0.1,0.1-0.1,0.3,0,0.4C8.9,15,9,15.1,9,15.1c0.1,0,0.2,0,0.2-0.1l3.5-3.5l1.2,1.2
			c0.1,0.1,0.1,0.1,0.2,0.1c0.1,0,0.2,0,0.2-0.1l1.4-1.4c0.1-0.1,0.1-0.3,0-0.4l-4.2-4.2L15,3.2h5.8c0.2,0,0.3-0.1,0.3-0.3v-2
			C21.1,0.8,21.1,0.7,21,0.7 M14.2,12L4.4,2.2l1-1l9.7,9.7L14.2,12L14.2,12z M20.5,2.6h-5.6c-0.1,0-0.2,0-0.2,0.1l-3.4,3.4l-0.5-0.5
			l-0.5-0.5l3.9-3.9h6.4V2.6L20.5,2.6z M5.1,6.2L1.4,9.9C1.3,9.9,1.2,10,1.2,10C1.1,10,1,9.9,1,9.9C0.8,9.8,0.8,9.6,1,9.5l3.7-3.7
			c0.1-0.1,0.3-0.1,0.4,0C5.2,5.9,5.2,6.1,5.1,6.2 M6.9,8.1l-3.7,3.7c-0.1,0.1-0.1,0.1-0.2,0.1c-0.1,0-0.2,0-0.2-0.1
			c-0.1-0.1-0.1-0.3,0-0.4l3.7-3.7c0.1-0.1,0.3-0.1,0.4,0C7,7.7,7,7.9,6.9,8.1 M8.8,9.9l-3.7,3.7C5,13.6,5,13.7,4.9,13.7
			c-0.1,0-0.2,0-0.2-0.1c-0.1-0.1-0.1-0.3,0-0.4l3.7-3.7c0.1-0.1,0.3-0.1,0.4,0C8.9,9.6,8.9,9.8,8.8,9.9 M10.6,11.8l-3.7,3.7
			c-0.1,0.1-0.1,0.1-0.2,0.1s-0.2,0-0.2-0.1c-0.1-0.1-0.1-0.3,0-0.4l3.7-3.7c0.1-0.1,0.3-0.1,0.4,0C10.7,11.4,10.7,11.6,10.6,11.8"
			/>
	</g>
</g>
</svg>
