<?xml version="1.0" encoding="utf-8"?>
<!-- Generator: Adobe Illustrator 22.1.0, SVG Export Plug-In . SVG Version: 6.00 Build 0)  -->
<svg version="1.1" id="Layer_1" xmlns="http://www.w3.org/2000/svg" xmlns:xlink="http://www.w3.org/1999/xlink" x="0px" y="0px"
	 viewBox="0 0 26 18" style="enable-background:new 0 0 26 18;" xml:space="preserve">
<path fill="currentColor" class="st0" d="M24.7,3.1c-0.3-1.1-1.1-1.9-2.2-2.2C20.6,0.4,13,0.4,13,0.4s-7.6,0-9.6,0.5C2.4,1.2,1.6,2,1.3,3.1
	C0.8,5,0.8,9,0.8,9s0,4,0.5,5.9c0.3,1.1,1.1,1.9,2.2,2.2c1.9,0.5,9.6,0.5,9.6,0.5s7.6,0,9.6-0.5c1.1-0.3,1.9-1.1,2.2-2.2
	C25.2,13,25.2,9,25.2,9S25.2,5,24.7,3.1z M10.5,12.6V5.4L16.9,9L10.5,12.6z"/>
</svg>
