<?xml version="1.0" encoding="utf-8"?>
<!-- Generator: Adobe Illustrator 23.0.1, SVG Export Plug-In . SVG Version: 6.00 Build 0)  -->
<svg version="1.1" id="Layer_1" xmlns="http://www.w3.org/2000/svg" xmlns:xlink="http://www.w3.org/1999/xlink" x="0px" y="0px"
	 viewBox="0 0 48 48" style="enable-background:new 0 0 48 48;" xml:space="preserve">
<style type="text/css">
	.st0{fill:none;stroke:#001628;stroke-width:0.5;}
</style>
<title>icon-station</title>
<path class="st0" d="M34.5,38.9H14.1c-1.6,0-2.8-1.3-2.8-2.8v-25c0-1.6,1.3-2.8,2.8-2.8h20.4c1.6,0,2.8,1.3,2.8,2.8v25
	C37.3,37.6,36,38.9,34.5,38.9z M15.8,38.9l-7.7,7.7 M32.7,38.9l7.7,7.7 M37.3,43.5H11.2"/>
<path class="st0" d="M20.4,32.8c0,1.7-1.4,3.1-3.1,3.1c-1.7,0-3.1-1.4-3.1-3.1c0-1.7,1.4-3.1,3.1-3.1c0,0,0,0,0,0
	C19.1,29.7,20.4,31.1,20.4,32.8z M34.2,32.8c0,1.7-1.4,3.1-3.1,3.1s-3.1-1.4-3.1-3.1c0-1.7,1.4-3.1,3.1-3.1l0,0
	C32.9,29.7,34.2,31.1,34.2,32.8z M37.3,17.5H11.2 M28.1,12.9h-7.7"/>
</svg>
