<?xml version="1.0" encoding="utf-8"?>
<!-- Generator: Adobe Illustrator 22.1.0, SVG Export Plug-In . SVG Version: 6.00 Build 0)  -->
<svg version="1.1" id="Layer_1" xmlns="http://www.w3.org/2000/svg" xmlns:xlink="http://www.w3.org/1999/xlink" x="0px" y="0px"
	 viewBox="0 0 26 18" style="enable-background:new 0 0 26 18;" xml:space="preserve">
<g fill="currentColor">
	<g>
		<defs>
			<rect id="SVGID_1_" x="0.7" y="0.8" width="24.6" height="16.4"/>
		</defs>
		<clipPath id="SVGID_2_">
			<use xlink:href="#SVGID_1_"  style="overflow:visible;"/>
		</clipPath>
		<path class="st0" d="M25,7.5h-1.4c0,0,0,0,0,0H10.8C11,7.3,11.1,7,11.1,6.6V6.5c0-0.8-0.7-1.5-1.5-1.5H5.9C5.1,5,4.4,5.6,4.4,6.5
			v0.2c0,0.3,0.1,0.6,0.3,0.9h-1V1.1c0-0.2-0.1-0.3-0.3-0.3H1C0.8,0.8,0.7,1,0.7,1.1v15.8c0,0.2,0.1,0.3,0.3,0.3h2.4
			c0.2,0,0.3-0.1,0.3-0.3v-3h19.6v3c0,0.2,0.1,0.3,0.3,0.3H25c0.2,0,0.3-0.1,0.3-0.3V7.8C25.3,7.7,25.2,7.5,25,7.5 M5,6.6V6.5
			C5,6,5.4,5.6,5.9,5.6h3.7c0.5,0,0.9,0.4,0.9,0.9v0.2c0,0.5-0.4,0.9-0.9,0.9H5.9C5.4,7.5,5,7.1,5,6.6 M23.3,11.9H3.7V8.1h19.6V11.9
			L23.3,11.9z M3.1,16.6H1.3V1.4h1.8V16.6L3.1,16.6z M3.7,12.5h19.6v0.8H3.7V12.5L3.7,12.5z M24.7,16.6h-0.8v-3c0,0,0,0,0,0V8.1h0.8
			V16.6L24.7,16.6z"/>
	</g>
</g>
</svg>
