<?xml version="1.0" encoding="utf-8"?>
<!-- Generator: Adobe Illustrator 19.2.1, SVG Export Plug-In . SVG Version: 6.00 Build 0)  -->
<svg version="1.1" id="Layer_1" xmlns="http://www.w3.org/2000/svg" xmlns:xlink="http://www.w3.org/1999/xlink" x="0px" y="0px"
	 viewBox="0 0 26 23" style="enable-background:new 0 0 26 23;" xml:space="preserve">
<style type="text/css">
	.st0{fill:#041C2C;}
</style>
<title>favourite</title>
<path fill="currentColor" d="M13,23c-0.3,0-0.7-0.1-0.9-0.4L12,22.5l-9.7-9.7c-2.9-2.9-2.9-7.7,0-10.6s7.7-2.9,10.6,0L13,2.4l0.2-0.2
	c2.9-2.9,7.6-2.9,10.6,0l0,0c2.9,2.9,2.9,7.6,0,10.6l-9.8,9.8C13.7,22.8,13.3,23,13,23z M7.6,0.8c-3.7,0-6.7,3-6.7,6.7
	c0,1.8,0.7,3.5,2,4.7l9.8,9.8c0.1,0.1,0.3,0.2,0.4,0.2c0.1,0,0.3-0.1,0.4-0.2V22l9.8-9.7c2.6-2.6,2.6-6.9,0-9.5s-6.9-2.6-9.5,0
	L13,3.5l-0.7-0.7C11.1,1.5,9.3,0.8,7.6,0.8z"/>
</svg>
