<?xml version="1.0" encoding="utf-8"?>
<!-- Generator: Adobe Illustrator 22.1.0, SVG Export Plug-In . SVG Version: 6.00 Build 0)  -->
<svg version="1.1" id="Layer_1" xmlns="http://www.w3.org/2000/svg" xmlns:xlink="http://www.w3.org/1999/xlink" x="0px" y="0px"
	 viewBox="0 0 22 16" style="enable-background:new 0 0 22 16;" xml:space="preserve">
<g fill="currentColor">
	<g>
		<defs>
			<rect id="SVGID_1_" x="0.8" y="0.1" width="20.5" height="15.9"/>
		</defs>
		<clipPath id="SVGID_2_">
			<use xlink:href="#SVGID_1_"  style="overflow:visible;"/>
		</clipPath>
		<path class="st0" d="M21.2,5.9c0-0.2-0.1-0.3-0.3-0.3h-1.3V0.4c0-0.2-0.1-0.3-0.3-0.3H2.7c-0.2,0-0.3,0.1-0.3,0.3v5.2H1.1
			c-0.2,0-0.3,0.1-0.3,0.3v7.2v2.6c0,0.2,0.1,0.3,0.3,0.3h3.2c0.2,0,0.3-0.1,0.3-0.3v-2.3h12.8v2.3c0,0.2,0.1,0.3,0.3,0.3h3.2
			c0.2,0,0.3-0.1,0.3-0.3v-2.6V5.9L21.2,5.9z M17.6,5.6H4.4V2h13.1V5.6L17.6,5.6z M3,0.7h16v4.9h-0.9V1.7c0-0.2-0.1-0.3-0.3-0.3H4.1
			C4,1.4,3.8,1.6,3.8,1.7v3.8H3V0.7L3,0.7z M1.4,6.2h19.3v6.6h-2.9l0,0c0,0,0,0,0,0H4.3l0,0c0,0,0,0,0,0H1.4V6.2L1.4,6.2z M4,15.3
			H1.4v-2H4V15.3L4,15.3z M18,13.4h2.6v2H18V13.4L18,13.4z M4.3,11.7c1.1,0,1.9-0.9,1.9-1.9c0-1.1-0.9-1.9-1.9-1.9
			c-1.1,0-1.9,0.9-1.9,1.9C2.4,10.8,3.3,11.7,4.3,11.7 M4.3,8.4c0.7,0,1.3,0.6,1.3,1.3c0,0.7-0.6,1.3-1.3,1.3C3.6,11.1,3,10.5,3,9.8
			C3,9,3.6,8.4,4.3,8.4 M17.7,11.7c1.1,0,1.9-0.9,1.9-1.9c0-1.1-0.9-1.9-1.9-1.9s-1.9,0.9-1.9,1.9C15.8,10.8,16.6,11.7,17.7,11.7
			 M17.7,8.4C18.4,8.4,19,9,19,9.8c0,0.7-0.6,1.3-1.3,1.3c-0.7,0-1.3-0.6-1.3-1.3C16.4,9,16.9,8.4,17.7,8.4"/>
	</g>
</g>
</svg>
