<?xml version="1.0" encoding="utf-8"?>
<!-- Generator: Adobe Illustrator 19.2.1, SVG Export Plug-In . SVG Version: 6.00 Build 0)  -->
<svg version="1.1" id="Layer_1" xmlns="http://www.w3.org/2000/svg" xmlns:xlink="http://www.w3.org/1999/xlink" x="0px" y="0px"
	 viewBox="0 0 14 15" style="enable-background:new 0 0 14 15;" xml:space="preserve">
<title>addCalendar</title>
<path fill="currentColor" class="st0" d="M10.4,1H3.9V0.7c0-0.3-0.2-0.5-0.4-0.5S3.2,0.4,3.2,0.7V1H1.3C0.9,1,0.5,1.4,0.5,1.8V14c0,0.4,0.3,0.8,0.8,0.8
	h11.5c0.4,0,0.8-0.4,0.8-0.8V1.8c0-0.4-0.4-0.8-0.8-0.8h-1.5V0.7c0-0.3-0.2-0.5-0.4-0.5s-0.4,0.1-0.4,0.5L10.4,1z M11.2,1.8h1.2
	c0.2,0,0.4,0.2,0.4,0.4v2.6H1.3V2.2c0-0.3,0.1-0.4,0.4-0.4h1.6v0.3c0,0.3,0.2,0.5,0.4,0.5s0.4-0.1,0.4-0.5V1.8h6.5v0.3
	c0,0.3,0.2,0.5,0.4,0.5s0.4-0.1,0.4-0.5L11.2,1.8z M6.6,9.4V7.5h0.8v1.9h1.9v0.8H7.4v1.9H6.6v-1.9H4.7V9.4H6.6z M12.7,13.6
	c0,0.2-0.1,0.3-0.3,0.4c0,0,0,0-0.1,0H1.6c-0.2,0-0.3-0.1-0.4-0.3c0,0,0,0,0-0.1V5.6h11.5L12.7,13.6z"/>
</svg>
