<?xml version="1.0" encoding="utf-8"?>
<!-- Generator: Adobe Illustrator 22.1.0, SVG Export Plug-In . SVG Version: 6.00 Build 0)  -->
<svg version="1.1" id="Layer_1" xmlns="http://www.w3.org/2000/svg" xmlns:xlink="http://www.w3.org/1999/xlink" x="0px" y="0px"
	 viewBox="0 0 36 23" style="enable-background:new 0 0 36 23;" xml:space="preserve">
<style type="text/css">
	.st0{fill:#FD241C;}
</style>
<g fill="currentColor">
	<path class="st0" d="M11.6,9.9v3.9H18c-0.3, 1.7-1.9,4.9-6.4,4.9c-3.8,0-7-3.2-7-7.1 s3.1-7.1,7-7.1c2.2,0,3.7,0.9,4.5, 1.7l3.1-2.9c-2-1.8-4.5-2.9-7.5-2.9c-6.2,0-11.3,5-11.3,11.3s5,11.3,11.3,11.3 c6.5,0,10.8-4.6,10.8-11c0-0.7-0.1-1.3-0.2-1.9H11.6L11.6,9.9z" />
	<path class="st0" d="M35.7,9.9h-3.2V6.7h-3.2v3.2H26v3.2h3.2v3.2h3.2v-3.2h3.2"/>
</g>
</svg>
