<?xml version="1.0" encoding="utf-8"?>
<!-- Generator: Adobe Illustrator 23.0.1, SVG Export Plug-In . SVG Version: 6.00 Build 0)  -->
<svg version="1.1" id="Layer_1" xmlns="http://www.w3.org/2000/svg" xmlns:xlink="http://www.w3.org/1999/xlink" x="0px" y="0px"
	 viewBox="0 0 48 48" style="enable-background:new 0 0 48 48;" xml:space="preserve">
<style type="text/css">
	.st0{fill:none;stroke:#001628;stroke-width:0.5;}
</style>
<title>icon-school</title>
<polyline class="st0" points="12.8,40 12.8,9.8 35.4,9.8 35.4,40 "/>
<polyline class="st0" points="12.1,43.7 5.2,43.7 5.2,24.9 12.8,24.9 12.8,40 "/>
<polyline class="st0" points="35.4,40 35.4,24.9 43,24.9 43,43.7 12,43.7 "/>
<polyline class="st0" points="24.1,9.8 24.1,2.2 29.8,2.2 27.9,4.1 29.8,6 26,6 "/>
<polyline class="st0" points="9,43.7 9,40 39.2,40 39.2,43.7 "/>
<polygon class="st0" points="16.6,26.8 22.2,26.8 22.2,13.6 16.6,13.6 "/>
<polygon class="st0" points="26,26.8 31.6,26.8 31.6,13.6 26,13.6 "/>
<polygon class="st0" points="16.6,40 31.6,40 31.6,30.5 16.6,30.5 "/>
</svg>
