<?xml version="1.0" encoding="utf-8"?>
<!-- Generator: Adobe Illustrator 19.2.1, SVG Export Plug-In . SVG Version: 6.00 Build 0)  -->
<svg version="1.1" id="Layer_1" xmlns="http://www.w3.org/2000/svg" xmlns:xlink="http://www.w3.org/1999/xlink" x="0px" y="0px"
	 viewBox="0 0 15 17" style="enable-background:new 0 0 15 17;" xml:space="preserve">
<style type="text/css">
	.st0{fill:#041C2C;}
</style>
<title>toilet</title>
<path fill="currentColor" class="st0" d="M14.1,6.1c-0.3-0.3-0.8-0.5-1.3-0.6H5.2C4.8,5.5,4.3,5.7,4,6V4.3c0-0.2-0.1-0.3-0.2-0.4S3.4,4,3.4,4.2
	c0,0,0,0.1,0,0.1V7H0.9V0.8h2.4v0.4c0,0.2,0.2,0.3,0.4,0.2C3.9,1.4,4,1.3,4,1.2V0.5c0-0.2-0.1-0.3-0.3-0.3h-3
	c-0.2,0-0.3,0.1-0.3,0.3v6.8c0,0,0,0,0,0.1c0,0,0,0.1,0,0.1l3,6l-1.5,2.8c0,0.1,0,0.1,0,0.2c0,0.2,0.1,0.3,0.3,0.3h8.3
	c0,0,0.1,0,0.1,0c0.2-0.1,0.2-0.3,0.1-0.4c-1.4-2.8-0.4-3.3,0.9-4.1c1.9-0.9,3.1-2.8,3-4.9C14.6,6.9,14.4,6.4,14.1,6.1z M4.4,6.5
	c0.2-0.2,0.5-0.4,0.9-0.4h7.6c0.3,0,0.6,0.1,0.9,0.4c0.2,0.2,0.3,0.3,0.3,0.6H4C4.1,6.8,4.2,6.7,4.4,6.5z M11.4,11.8
	c-1.5,0.9-2.6,1.6-1.3,4.5H2.7l1.2-2.4h2.9c0.2,0,0.3-0.2,0.2-0.4c0-0.1-0.1-0.2-0.2-0.2H3.9L1.1,7.7H14C14.1,9.4,13,11,11.4,11.8
	L11.4,11.8z"/>
<path fill="currentColor" class="st0" d="M3.3,2C3.1,1.8,2.8,1.7,2.5,1.7c-0.6,0-1,0.5-1.1,1.1c0,0.3,0.1,0.6,0.3,0.8C2,3.7,2.3,3.8,2.5,3.8
	c0.3,0,0.6-0.1,0.8-0.3c0.1-0.1,0.2-0.3,0.2-0.4H5c0.2,0,0.3-0.1,0.3-0.3c0-0.2-0.1-0.3-0.3-0.3l0,0H3.5C3.5,2.3,3.4,2.1,3.3,2z
	 M2.9,3.1C2.8,3.1,2.7,3.2,2.5,3.2c-0.1,0-0.2-0.1-0.3-0.1C2.1,3,2.1,2.9,2.1,2.7c0-0.1,0.1-0.2,0.1-0.3c0.1-0.1,0.2-0.1,0.3-0.1
	c0.1,0,0.2,0.1,0.3,0.1C2.9,2.5,3,2.6,3,2.7C3,2.9,3,3,2.9,3.1z"/>
</svg>
