<?xml version="1.0" encoding="utf-8"?>
<!-- Generator: Adobe Illustrator 22.1.0, SVG Export Plug-In . SVG Version: 6.00 Build 0)  -->
<svg version="1.1" id="Layer_1" xmlns="http://www.w3.org/2000/svg" xmlns:xlink="http://www.w3.org/1999/xlink" x="0px" y="0px"
	 viewBox="0 0 332 74" style="enable-background:new 0 0 332 74;" xml:space="preserve">
<style type="text/css">
	.st0{fill:#041C2C;}
	.st1{fill:#DA2922;}
</style>
<g>
	<g>
		<path fill="currentColor" class="st0" d="M106.7,24.2c-8,0-12.5,4.6-13.7,10.3l5.6,2c0.9-3.6,2.8-6.6,8.2-6.6c4.9,0,6.9,2.3,6.9,4.8
			c0,2.9-2.7,3.8-9.7,5.6c-8.5,2.1-11.8,5-11.8,10.9c0,5.4,3.6,10.1,12.1,10.1c6.6,0,9.7-3.5,10.3-4.7h0.1v3.7h5.6V37.1
			C120.3,27.7,114.4,24.2,106.7,24.2 M114,49c0,3.4-2.9,6.6-9.2,6.6c-4.5,0-6.4-1.9-6.4-4.8c0-2.5,1.1-4.2,7-5.8
			c7.1-1.9,8-2.9,8.5-3.8h0.1V49z M131.3,28.9c1.5-2.9,4.4-4.4,7.2-4.4c1.5,0,2.6,0.4,3.1,0.7l-1.1,6.4c-0.5-0.2-1.3-0.5-2.7-0.5
			c-4.2,0-6.4,2.9-6.4,8.6v20.6H125V25.1h6.2v3.8H131.3 M81.4,35.4v-0.1c3.1-1.5,5.7-4.4,5.7-9.2c0-6.8-5.2-12.2-13.6-12.2H55.1
			v46.4h17c12.4,0,16.7-5.9,16.7-13.9C88.9,40.2,85,36.7,81.4,35.4 M61.7,20h10.7c5,0,8.1,2.3,8.1,6.6c0,4.2-2.7,6.6-8,6.6H61.7V20z
			 M71.1,54.2h-9.3V38.9h9.5c7,0,11,1.6,11,7.5C82.2,52.8,77.7,54.2,71.1,54.2 M321.9,30.8v17.8c0,3.8,0.7,5.4,4.5,5.4h2.7v6.2h-3.1
			c-7.8,0-10.4-3.8-10.4-11V30.8h-3.4v-5.6h3.6v-6.4l6.2-1.7v8.1h8.8v5.6H321.9z M261.4,24.2c-8,0-12.5,4.6-13.7,10.3l5.6,2
			c0.9-3.6,2.8-6.6,8.2-6.6c4.9,0,6.9,2.3,6.9,4.8c0,2.9-2.7,3.8-9.7,5.6c-8.5,2.1-11.8,5-11.8,10.9c0,5.4,3.6,10.1,12.1,10.1
			c6.6,0,9.7-3.5,10.3-4.7h0.1v3.7h5.6V37.1C275,27.7,269.1,24.2,261.4,24.2 M268.7,49c0,3.4-2.9,6.6-9.2,6.6
			c-4.5,0-6.4-1.9-6.4-4.8c0-2.5,1.1-4.2,7-5.8c7.1-1.9,8-2.9,8.5-3.8h0.1V49z M295.7,24.2c7.6,0,12.7,4.9,12.7,13.1v23h-6.5V39.1
			c0-5.8-2.2-9-7.4-9c-5,0-8.4,3.1-8.4,8.1v22.1h-6.4V25.1h6.3v3.4h0.1C287.9,26.1,291.7,24.2,295.7,24.2 M150.9,28.9
			c1.5-2.9,4.4-4.4,7.2-4.4c1.5,0,2.6,0.4,3.1,0.7l-1.1,6.4c-0.5-0.2-1.3-0.5-2.7-0.5c-4.2,0-6.4,2.9-6.4,8.6v20.6h-6.4V25.1h6.2
			v3.8H150.9 M236.6,13.6h6.6v46.7h-6.6V13.6z M217.3,13.9h-18.2v46.4h6.6V42.7h11.6c9.5,0,15.6-5.2,15.6-14.4
			C232.9,19.1,226.4,13.9,217.3,13.9 M217.1,36.6h-11.3V20H217c4.7,0,9.1,2.3,9.1,8.3C226.1,33.9,222,36.6,217.1,36.6 M196.1,25.1
			l-19.2,48.7h-6.3l6.2-16l-13.3-32.7h6.8l9.6,25.1l9.5-25.1H196.1z"/>
	</g> 
	<polygon fill="currentColor" class="st0" points="0,10.4 0,53 18.4,41.3 36.7,53 36.7,10.4 	"/>
	<rect fill="fillColor" class="st1" width="36.7" height="10.4"/>
</g>
</svg>
